<svg xmlns="http://www.w3.org/2000/svg" viewBox="0 0 24 24" width="24" height="24" color="#000000" fill="none">
    <defs />
    <path fill="currentColor" d="M18.997,5.043 C20.098,5.628 21.015,6.504 21.648,7.576 C22.507,9.03 22.582,10.822 22.732,14.394 L22.732,14.394 C22.775,15.435 22.798,16.001 22.525,16.53 C22.323,16.921 22.014,17.241 21.633,17.457 C21.14,17.736 20.599,17.749 19.653,17.75 C19.326,18.902 18.264,19.749 17.008,19.749 C15.752,19.749 14.689,18.902 14.362,17.749 L9.654,17.749 C9.326,18.902 8.264,19.749 7.008,19.749 C5.751,19.749 4.688,18.901 4.361,17.747 C3.194,17.734 2.483,17.651 1.921,17.092 C1.298,16.47 1.261,15.669 1.259,14.269 L1.259,10.115 C1.253,10.078 1.25,10.039 1.25,10 C1.25,9.961 1.253,9.922 1.259,9.885 L1.259,7.999 C1.259,6.431 1.259,5.567 1.92,4.907 C2.503,4.326 3.247,4.258 4.494,4.25 L13.201,4.25 C16.082,4.258 17.663,4.334 18.997,5.043 Z M15.407,10.75 L2.759,10.75 L2.759,14.212 C2.76,15.183 2.774,15.824 2.98,16.029 C3.153,16.201 3.635,16.239 4.362,16.247 C4.691,15.095 5.753,14.249 7.008,14.249 C8.264,14.249 9.326,15.096 9.654,16.249 L14.362,16.249 C14.689,15.096 15.752,14.249 17.008,14.249 C18.264,14.249 19.326,15.096 19.654,16.249 C20.301,16.249 20.73,16.242 20.893,16.15 C21.021,16.078 21.124,15.971 21.192,15.84 C21.283,15.664 21.263,15.19 21.233,14.471 C21.206,13.836 21.182,13.267 21.156,12.749 C20.89,12.753 20.514,12.757 20.11,12.757 C19.321,12.757 18.424,12.742 18.017,12.681 C17.28,12.571 16.788,12.09 16.219,11.533 L16.112,11.423 C16.068,11.371 16.027,11.32 15.987,11.271 C15.973,11.253 15.958,11.236 15.944,11.218 C15.563,10.75 15.533,10.75 15.368,10.75 Z M16.758,5.907 L16.758,9.865 C16.881,9.994 16.994,10.132 17.106,10.269 C17.15,10.324 17.194,10.378 17.241,10.434 L17.265,10.457 C17.736,10.918 17.993,11.16 18.24,11.197 C18.655,11.259 20.043,11.263 21.06,11.25 C20.946,9.912 20.761,9.025 20.356,8.338 C19.863,7.504 19.15,6.822 18.293,6.367 C17.868,6.142 17.375,5.998 16.758,5.907 Z M10.258,5.749 L6.758,5.749 L6.758,9.25 L10.258,9.25 Z M12.917,5.749 L11.758,5.749 L11.758,9.25 L15.258,9.25 L15.258,5.783 C14.595,5.757 13.825,5.751 12.917,5.749 Z M5.258,5.749 L4.602,5.75 C3.741,5.753 3.171,5.778 2.979,5.97 C2.759,6.19 2.759,6.91 2.759,7.999 L2.759,9.25 L5.258,9.25 Z M17.008,15.749 C16.319,15.749 15.758,16.31 15.758,16.999 C15.758,17.688 16.319,18.249 17.008,18.249 C17.695,18.249 18.256,17.69 18.258,17.003 C18.256,16.308 17.695,15.749 17.008,15.749 Z M7.008,15.749 C6.356,15.749 5.819,16.251 5.763,16.888 C5.768,16.924 5.771,16.961 5.771,16.999 C5.771,17.037 5.768,17.073 5.763,17.11 C5.819,17.747 6.356,18.249 7.008,18.249 C7.695,18.249 8.255,17.691 8.258,17.004 C8.255,16.307 7.695,15.749 7.008,15.749 Z" />
</svg>