<svg width="15" height="15" viewBox="0 0 15 15" fill="none" xmlns="http://www.w3.org/2000/svg">
<path d="M5.36869 2.78417L5.0667 2.10469C4.86924 1.66041 4.77051 1.43826 4.62286 1.26826C4.43781 1.05521 4.1966 0.898455 3.92676 0.815888C3.71144 0.75 3.46834 0.75 2.98216 0.75C2.27093 0.75 1.91532 0.75 1.6168 0.886718C1.26515 1.04777 0.947578 1.39746 0.821045 1.76295C0.71363 2.07322 0.744403 2.39207 0.805933 3.02978C1.46093 9.81762 5.18236 13.539 11.9702 14.1941C12.6079 14.2556 12.9268 14.2863 13.237 14.1789C13.6026 14.0524 13.9522 13.7349 14.1133 13.3832C14.25 13.0847 14.25 12.729 14.25 12.0178C14.25 11.5317 14.25 11.2886 14.1841 11.0733C14.1015 10.8034 13.9448 10.5622 13.7317 10.3771C13.5618 10.2295 13.3396 10.1307 12.8953 9.93327L12.2158 9.63132C11.7347 9.41749 11.4941 9.31055 11.2497 9.2873C11.0157 9.26502 10.7798 9.29787 10.5608 9.38315C10.332 9.47225 10.1298 9.64077 9.72522 9.97789C9.32262 10.3134 9.12132 10.4811 8.87532 10.571C8.65722 10.6507 8.36892 10.6802 8.13927 10.6464C7.88014 10.6082 7.68177 10.5021 7.28494 10.2901C6.05044 9.63035 5.36965 8.94957 4.7099 7.71507C4.49785 7.31825 4.39183 7.11987 4.35365 6.86075C4.3198 6.6311 4.34931 6.34279 4.42897 6.12469C4.51884 5.87871 4.68661 5.67739 5.02214 5.27475C5.35921 4.87026 5.52775 4.66802 5.61686 4.43918C5.70214 4.22021 5.73496 3.9843 5.71271 3.75036C5.68945 3.50589 5.58253 3.26532 5.36869 2.78417Z" stroke="#131313" stroke-width="1.5" stroke-linecap="round"/>
</svg>
