<svg width="30" height="30" viewBox="0 0 30 30" fill="none" xmlns="http://www.w3.org/2000/svg">
<path d="M11.6668 10.8333H18.3335C19.9048 10.8333 20.6905 10.8333 21.1787 11.3215C21.6668 11.8096 21.6668 12.5953 21.6668 14.1666V17.5C21.6668 20.2498 21.6668 21.6247 20.8126 22.4791C19.9582 23.3333 18.5833 23.3333 15.8335 23.3333H14.1668C11.417 23.3333 10.042 23.3333 9.18777 22.4791C8.3335 21.6247 8.3335 20.2498 8.3335 17.5V14.1666C8.3335 12.5953 8.3335 11.8096 8.82165 11.3215C9.3098 10.8333 10.0955 10.8333 11.6668 10.8333Z" stroke="#ABABAB" stroke-width="1.2" stroke-linecap="round" stroke-linejoin="round"/>
<path d="M18.3332 12.9167C18.3332 9.69503 16.8408 6.66669 14.9998 6.66669C13.1589 6.66669 11.6665 9.69503 11.6665 12.9167" stroke="#ABABAB" stroke-width="1.2" stroke-linecap="round" stroke-linejoin="round"/>
</svg>
