<svg width="14" height="13" viewBox="0 0 14 13" fill="none" xmlns="http://www.w3.org/2000/svg">
<path d="M5.8125 1.875H13.125M5.8125 1.875C5.8125 2.17337 5.69397 2.45952 5.483 2.6705C5.27202 2.88147 4.98587 3 4.6875 3C4.38913 3 4.10298 2.88147 3.892 2.6705C3.68103 2.45952 3.5625 2.17337 3.5625 1.875M5.8125 1.875C5.8125 1.57663 5.69397 1.29048 5.483 1.0795C5.27202 0.868526 4.98587 0.75 4.6875 0.75C4.38913 0.75 4.10298 0.868526 3.892 1.0795C3.68103 1.29048 3.5625 1.57663 3.5625 1.875M3.5625 1.875H0.75M5.8125 10.875H13.125M5.8125 10.875C5.8125 11.1734 5.69397 11.4595 5.483 11.6705C5.27202 11.8815 4.98587 12 4.6875 12C4.38913 12 4.10298 11.8815 3.892 11.6705C3.68103 11.4595 3.5625 11.1734 3.5625 10.875M5.8125 10.875C5.8125 10.5766 5.69397 10.2905 5.483 10.0795C5.27202 9.86853 4.98587 9.75 4.6875 9.75C4.38913 9.75 4.10298 9.86853 3.892 10.0795C3.68103 10.2905 3.5625 10.5766 3.5625 10.875M3.5625 10.875H0.75M10.3125 6.375H13.125M10.3125 6.375C10.3125 6.67337 10.194 6.95952 9.98299 7.1705C9.77202 7.38147 9.48587 7.5 9.1875 7.5C8.88913 7.5 8.60298 7.38147 8.392 7.1705C8.18103 6.95952 8.0625 6.67337 8.0625 6.375M10.3125 6.375C10.3125 6.07663 10.194 5.79048 9.98299 5.5795C9.77202 5.36853 9.48587 5.25 9.1875 5.25C8.88913 5.25 8.60298 5.36853 8.392 5.5795C8.18103 5.79048 8.0625 6.07663 8.0625 6.375M8.0625 6.375H0.75" stroke="#545454" stroke-width="1.5" stroke-linecap="round" stroke-linejoin="round"/>
</svg>
