<svg xmlns="http://www.w3.org/2000/svg" viewBox="0 0 24 24" width="24" height="24" color="#000000" fill="none">
    <path d="M11.9961 1.25C14.6631 1.25 17.1046 2.22265 18.9834 3.83105C19.298 4.10041 19.3347 4.57304 19.0654 4.8877C18.7961 5.20233 18.3234 5.23906 18.0088 4.96973C16.3915 3.58515 14.2921 2.75 11.9961 2.75C6.88746 2.75 2.74609 6.89137 2.74609 12C2.74609 17.1086 6.88746 21.25 11.9961 21.25C14.2921 21.25 16.3915 20.4149 18.0088 19.0303C18.3234 18.7609 18.7961 18.7977 19.0654 19.1123C19.3347 19.427 19.298 19.8996 18.9834 20.1689C17.1046 21.7774 14.6631 22.75 11.9961 22.75C6.05903 22.75 1.24609 17.9371 1.24609 12C1.24609 6.06294 6.05903 1.25 11.9961 1.25ZM17.3926 7.55566C17.6382 7.22218 18.1069 7.15095 18.4404 7.39648H18.4424L18.4443 7.39844C18.4465 7.4001 18.4502 7.40332 18.4541 7.40625C18.4622 7.41224 18.4744 7.42053 18.4893 7.43164C18.5198 7.45437 18.5642 7.48803 18.6201 7.53027C18.7322 7.61491 18.8921 7.73679 19.083 7.88574C19.4642 8.18326 19.9755 8.59282 20.4883 9.03809C20.9976 9.48028 21.5264 9.97277 21.9336 10.4336C22.1363 10.6631 22.3249 10.9034 22.4668 11.1387C22.5962 11.3535 22.7461 11.6597 22.7461 12C22.746 12.3402 22.5962 12.6466 22.4668 12.8613C22.3249 13.0966 22.1363 13.337 21.9336 13.5664C21.5264 14.0272 20.9975 14.5198 20.4883 14.9619C19.9753 15.4073 19.4633 15.8167 19.082 16.1143C18.8912 16.2632 18.7321 16.3851 18.6201 16.4697C18.5642 16.512 18.5197 16.5457 18.4893 16.5684C18.4743 16.5795 18.4622 16.5878 18.4541 16.5938C18.4501 16.5967 18.4465 16.6 18.4443 16.6016L18.4424 16.6035H18.4404C18.107 16.8488 17.6382 16.7775 17.3926 16.4443C17.1471 16.1109 17.2184 15.6412 17.5518 15.3955L17.5537 15.3945L17.5928 15.3652C17.6208 15.3443 17.6626 15.3127 17.7158 15.2725C17.8225 15.1919 17.9764 15.0751 18.1602 14.9316C18.5287 14.644 19.0174 14.2515 19.5039 13.8291C19.9205 13.4674 20.3217 13.0919 20.6436 12.75H8.99609C8.58201 12.75 8.24631 12.414 8.24609 12C8.24611 11.5858 8.58189 11.25 8.99609 11.25H20.6436C20.3217 10.9081 19.9205 10.5326 19.5039 10.1709C19.0174 9.74851 18.5287 9.35599 18.1602 9.06836C17.9764 8.92493 17.8225 8.80811 17.7158 8.72754C17.6626 8.68735 17.6209 8.6557 17.5928 8.63477L17.5537 8.60547L17.5518 8.60449C17.2184 8.35895 17.1473 7.88916 17.3926 7.55566Z" fill="currentColor" />
</svg>