<svg width="17" height="15" viewBox="0 0 17 15" fill="none" xmlns="http://www.w3.org/2000/svg">
<path d="M0.761828 8.2317C0.810855 10.5309 0.835373 11.6804 1.68372 12.5321C2.53206 13.3836 3.71275 13.4132 6.07412 13.4726C7.52948 13.5092 8.97053 13.5092 10.4259 13.4726C12.7873 13.4132 13.9679 13.3836 14.8163 12.5321C15.6647 11.6804 15.6892 10.5309 15.7381 8.2317C15.754 7.49243 15.754 6.75758 15.7381 6.0183C15.6892 3.71915 15.6647 2.56957 14.8163 1.718C13.9679 0.866423 12.7873 0.836761 10.4259 0.777428C8.97053 0.740858 7.52947 0.740858 6.07411 0.777421C3.71275 0.836746 2.53206 0.866408 1.68371 1.71799C0.835365 2.56956 0.810855 3.71914 0.76182 6.0183C0.746055 6.75758 0.746063 7.49243 0.761828 8.2317Z" stroke="#131313" stroke-width="1.5" stroke-linecap="round" stroke-linejoin="round"/>
</svg>
