<svg xmlns="http://www.w3.org/2000/svg" viewBox="0 0 24 24" width="24" height="24" color="#000000" fill="none">
    <defs />
    <path fill="currentColor" d="M13,21.5 C8.1,21.5 5.64,21.5 3.96,19.99 C2.25,18.45 2.25,16.21 2.25,11.75 C2.25,7.29 2.25,5.05 3.96,3.51 C5.64,2 8.1,2 13,2 C17.9,2 20.36,2 22.04,3.51 C23.75,5.05 23.75,7.29 23.75,11.75 C23.75,16.21 23.75,18.45 22.04,19.99 C20.36,21.5 17.9,21.5 13,21.5 Z M13,3.5 C8.48,3.5 6.22,3.5 4.97,4.63 C3.75,5.72 3.75,7.74 3.75,11.75 C3.75,15.76 3.75,17.78 4.97,18.87 C6.22,20 8.49,20 13,20 C17.51,20 19.78,20 21.03,18.87 C22.25,17.78 22.25,15.76 22.25,11.75 C22.25,7.74 22.25,5.72 21.03,4.63 C19.78,3.5 17.51,3.5 13,3.5 Z M19,16.5 L15,16.5 C14.59,16.5 14.25,16.16 14.25,15.75 C14.25,15.34 14.59,15 15,15 L19,15 C19.41,15 19.75,15.34 19.75,15.75 C19.75,16.16 19.41,16.5 19,16.5 Z M11,16.5 L7,16.5 C6.59,16.5 6.25,16.16 6.25,15.75 C6.25,15.34 6.59,15 7,15 L11,15 C11.41,15 11.75,15.34 11.75,15.75 C11.75,16.16 11.41,16.5 11,16.5 Z M19,12.5 L15,12.5 C14.59,12.5 14.25,12.16 14.25,11.75 C14.25,11.34 14.59,11 15,11 L19,11 C19.41,11 19.75,11.34 19.75,11.75 C19.75,12.16 19.41,12.5 19,12.5 Z M9.4,12.5 L8.6,12.5 C7.73,12.5 7.16,12.5 6.7,12.05 C6.24,11.6 6.25,11.02 6.25,10.15 L6.25,9.35 C6.25,8.48 6.25,7.91 6.7,7.45 C7.15,6.99 7.73,7 8.6,7 L9.4,7 C10.27,7 10.84,7 11.3,7.45 C11.76,7.9 11.75,8.48 11.75,9.35 L11.75,10.15 C11.75,11.02 11.75,11.59 11.3,12.05 C10.85,12.51 10.27,12.5 9.4,12.5 Z M8.6,8.5 C8.24,8.5 7.83,8.5 7.73,8.54 C7.75,8.58 7.75,8.99 7.75,9.35 L7.75,10.15 C7.75,10.51 7.75,10.92 7.79,11.02 C7.83,11 8.24,11 8.6,11 L9.4,11 C9.76,11 10.17,11 10.27,10.96 C10.25,10.92 10.25,10.51 10.25,10.15 L10.25,9.35 C10.25,8.99 10.25,8.58 10.21,8.48 C10.17,8.5 9.76,8.5 9.4,8.5 L8.6,8.5 Z M19,8.5 L15,8.5 C14.59,8.5 14.25,8.16 14.25,7.75 C14.25,7.34 14.59,7 15,7 L19,7 C19.41,7 19.75,7.34 19.75,7.75 C19.75,8.16 19.41,8.5 19,8.5 Z" />
</svg>