<svg width="20" height="20" viewBox="0 0 20 20" fill="none" xmlns="http://www.w3.org/2000/svg">
<path d="M14.5833 8.75L16.25 10.4167M11.6667 11.6667L13.3333 13.3333M8.75 14.5833L10.4167 16.25" stroke="#616161" stroke-width="1.2" stroke-linecap="round"/>
<path d="M8.77966 3.89806C9.91691 2.7608 10.4856 2.19217 11.1199 1.92942C11.9657 1.57908 12.916 1.57908 13.7618 1.92942C14.3962 2.19217 14.9647 2.7608 16.102 3.89806C17.2392 5.03532 17.8079 5.60395 18.0707 6.23828C18.421 7.08407 18.421 8.03438 18.0707 8.88017C17.8079 9.5145 17.2392 10.0832 16.102 11.2204L11.2205 16.1019C10.0832 17.2392 9.51458 17.8078 8.88025 18.0706C8.03446 18.4209 7.08415 18.4209 6.23836 18.0706C5.60403 17.8078 5.0354 17.2392 3.89814 16.1019C2.76088 14.9647 2.19225 14.3961 1.9295 13.7617C1.57916 12.9159 1.57916 11.9656 1.9295 11.1198C2.19225 10.4855 2.76088 9.91683 3.89814 8.77958L8.77966 3.89806Z" stroke="#616161" stroke-width="1.2" stroke-linecap="round"/>
</svg>
