<svg width="30" height="30" viewBox="0 0 30 30" fill="none" xmlns="http://www.w3.org/2000/svg">
<path d="M17.9168 13.75C17.9168 12.1391 16.611 10.8333 15.0002 10.8333C13.3893 10.8333 12.0835 12.1391 12.0835 13.75C12.0835 15.3608 13.3893 16.6666 15.0002 16.6666C16.611 16.6666 17.9168 15.3608 17.9168 13.75Z" stroke="#ABABAB" stroke-width="1.2" stroke-linecap="round" stroke-linejoin="round"/>
<path d="M23.3332 15C23.3332 10.3976 19.6022 6.66669 14.9998 6.66669C10.3975 6.66669 6.6665 10.3976 6.6665 15C6.6665 19.6024 10.3975 23.3334 14.9998 23.3334C19.6022 23.3334 23.3332 19.6024 23.3332 15Z" stroke="#ABABAB" stroke-width="1.2" stroke-linecap="round" stroke-linejoin="round"/>
<path d="M20 21.6667C20 18.9053 17.7614 16.6667 15 16.6667C12.2386 16.6667 10 18.9053 10 21.6667" stroke="#ABABAB" stroke-width="1.2" stroke-linecap="round" stroke-linejoin="round"/>
</svg>
