<svg width="20" height="20" viewBox="0 0 20 20" fill="none" xmlns="http://www.w3.org/2000/svg">
<g clip-path="url(#clip0_681_279)">
<path d="M0.429081 9.88032C0.428612 11.5607 0.871 13.2015 1.71219 14.6477L0.348633 19.5889L5.44359 18.263C6.85279 19.0244 8.43169 19.4234 10.0362 19.4235H10.0404C15.3371 19.4235 19.6487 15.1457 19.651 9.88784C19.652 7.34001 18.6532 4.94419 16.8385 3.14171C15.0241 1.33939 12.6111 0.346286 10.04 0.345123C4.74267 0.345123 0.431346 4.62264 0.429159 9.88032" fill="url(#paint0_linear_681_279)"/>
<path d="M0.0860139 9.87721C0.0854672 11.6181 0.54371 13.3175 1.4149 14.8155L0.00244141 19.9339L5.28009 18.5605C6.73425 19.3474 8.37149 19.7622 10.0375 19.7629H10.0418C15.5285 19.7629 19.995 15.3312 19.9974 9.88512C19.9983 7.24574 18.9636 4.7638 17.084 2.89674C15.2043 1.02992 12.7049 0.00108527 10.0418 0C4.5541 0 0.0882009 4.43101 0.0860139 9.87721ZM3.22904 14.5575L3.03198 14.2471C2.2036 12.9398 1.76637 11.4291 1.76699 9.87783C1.76871 5.35109 5.48058 1.66822 10.0449 1.66822C12.2553 1.66915 14.3326 2.52434 15.895 4.07597C17.4573 5.62775 18.317 7.69054 18.3165 9.8845C18.3144 14.4112 14.6025 18.0946 10.0418 18.0946H10.0385C8.55347 18.0938 7.09705 17.698 5.8269 16.95L5.52463 16.7721L2.39277 17.5871L3.22904 14.5575Z" fill="url(#paint1_linear_681_279)"/>
<path d="M7.55335 5.7479C7.36699 5.33682 7.17087 5.32852 6.99365 5.32131C6.84853 5.31511 6.68263 5.31557 6.5169 5.31557C6.351 5.31557 6.08146 5.37751 5.85363 5.62441C5.62556 5.87154 4.98291 6.46875 4.98291 7.6834C4.98291 8.89806 5.87432 10.072 5.99859 10.2369C6.12301 10.4015 7.71948 12.9739 10.2479 13.9635C12.3492 14.7859 12.7769 14.6223 13.2329 14.5811C13.6891 14.54 14.7047 13.984 14.912 13.4075C15.1193 12.8311 15.1193 12.337 15.0571 12.2337C14.995 12.1308 14.8291 12.0691 14.5803 11.9457C14.3316 11.8222 13.1085 11.2249 12.8805 11.1425C12.6524 11.0601 12.4866 11.0191 12.3207 11.2663C12.1548 11.5131 11.6785 12.0691 11.5333 12.2337C11.3882 12.3988 11.243 12.4193 10.9944 12.2958C10.7454 12.1719 9.94431 11.9115 8.99384 11.0705C8.25435 10.4161 7.7551 9.60798 7.60998 9.36077C7.46486 9.11395 7.59443 8.98015 7.71917 8.85713C7.83094 8.74651 7.96801 8.56883 8.09251 8.42472C8.21654 8.28054 8.25794 8.17767 8.34089 8.01302C8.42391 7.84821 8.38236 7.70402 8.32027 7.58054C8.25794 7.45705 7.77455 6.23604 7.55335 5.7479Z" fill="white"/>
</g>
<defs>
<linearGradient id="paint0_linear_681_279" x1="965.467" y1="1924.73" x2="965.467" y2="0.345123" gradientUnits="userSpaceOnUse">
<stop stop-color="#1FAF38"/>
<stop offset="1" stop-color="#60D669"/>
</linearGradient>
<linearGradient id="paint1_linear_681_279" x1="999.749" y1="1993.39" x2="999.749" y2="0" gradientUnits="userSpaceOnUse">
<stop stop-color="#F9F9F9"/>
<stop offset="1" stop-color="white"/>
</linearGradient>
<clipPath id="clip0_681_279">
<rect width="20" height="20" fill="white"/>
</clipPath>
</defs>
</svg>
