<svg xmlns="http://www.w3.org/2000/svg" viewBox="0 0 24 24" width="24" height="24" color="#000000" fill="none">
    <path fill-rule="evenodd" clip-rule="evenodd" d="M2.25 17.5C2.25 19.84 4.16 21.75 6.5 21.75C6.91 21.75 7.25 21.41 7.25 21C7.25 20.59 6.91 20.25 6.5 20.25C4.98 20.25 3.75 19.02 3.75 17.5C3.75 17.09 3.41 16.75 3 16.75C2.59 16.75 2.25 17.09 2.25 17.5ZM2.25 14C2.25 14.41 2.59 14.75 3 14.75C3.41 14.75 3.75 14.41 3.75 14V10C3.75 9.59 3.41 9.25 3 9.25C2.59 9.25 2.25 9.59 2.25 10V14ZM20.25 6.5C20.25 6.91 20.59 7.25 21 7.25C21.41 7.25 21.75 6.91 21.75 6.5C21.75 4.16 19.84 2.25 17.5 2.25C17.09 2.25 16.75 2.59 16.75 3C16.75 3.41 17.09 3.75 17.5 3.75C19.02 3.75 20.25 4.98 20.25 6.5ZM2.25 6.5C2.25 6.91 2.59 7.25 3 7.25C3.41 7.25 3.75 6.91 3.75 6.5C3.75 4.98 4.98 3.75 6.5 3.75C6.91 3.75 7.25 3.41 7.25 3C7.25 2.59 6.91 2.25 6.5 2.25C4.16 2.25 2.25 4.16 2.25 6.5ZM10 3.75H14C14.41 3.75 14.75 3.41 14.75 3C14.75 2.59 14.41 2.25 14 2.25H10C9.59 2.25 9.25 2.59 9.25 3C9.25 3.41 9.59 3.75 10 3.75ZM21 21.75C20.81 21.75 20.62 21.68 20.47 21.53L18.36 19.42C17.3 20.26 15.96 20.75 14.5 20.75C11.05 20.75 8.25 17.95 8.25 14.5C8.25 11.05 11.05 8.25 14.5 8.25C17.95 8.25 20.75 11.05 20.75 14.5C20.75 15.95 20.25 17.29 19.42 18.36L21.53 20.47C21.82 20.76 21.82 21.24 21.53 21.53C21.38 21.68 21.19 21.75 21 21.75ZM14.5 9.75C11.88 9.75 9.75 11.88 9.75 14.5C9.75 17.12 11.88 19.25 14.5 19.25C17.12 19.25 19.25 17.12 19.25 14.5C19.25 11.88 17.12 9.75 14.5 9.75ZM14.5 17.25C14.09 17.25 13.75 16.91 13.75 16.5V15.25H12.5C12.09 15.25 11.75 14.91 11.75 14.5C11.75 14.09 12.09 13.75 12.5 13.75H13.75V12.5C13.75 12.09 14.09 11.75 14.5 11.75C14.91 11.75 15.25 12.09 15.25 12.5V13.75H16.5C16.91 13.75 17.25 14.09 17.25 14.5C17.25 14.91 16.91 15.25 16.5 15.25H15.25V16.5C15.25 16.91 14.91 17.25 14.5 17.25Z" fill="currentColor" />
</svg>